<svg id="Layer_1" data-name="Layer 1" xmlns="http://www.w3.org/2000/svg" viewBox="0 0 99.74 90.89"><title>swp</title><path d="M11.61,18.22c-0.56.22-9.39,1.52-9.38,0.52,0-.09,2.74-1.83-0.59-0.52-5.79,2.59,8.44,6.31,11.56,2.37C19.76,12.3,5.93,15.34,6,11.09,6,7.93,15.85,8,15.85,8.2c0,0.67-2.38,1-2.38,2,0-1,7.73-1.68,4.66-4.62-4.9-4.7-18.12,4.9-13.6,7.32,2.07,1.2,7.76,1.37,9.22,4.08a7.63,7.63,0,0,1-2.14,1.25h0Z" transform="translate(-0.26 -4.29)"/><path d="M25,15.4h0Z" transform="translate(-0.26 -4.29)"/><path d="M20.84,9.83h0Z" transform="translate(-0.26 -4.29)"/><path d="M54.46,15.4h0Z" transform="translate(-0.26 -4.29)"/><polygon points="77.4 13.8 77.4 13.8 77.4 13.8 77.4 13.8"/><path d="M96.8,19c0.42-.71,2.85-5.28,2.08-6-1.52-1.52-5.94,7.56-7.68,5.4C89,15.62,97.63,13,97.65,11.38c0-1.94-7.12,2.61-8.26,5.3,0,0.32-3.32,2.66-3.31,1.16L89,13.32c0-5.18-6.74,4.06-7.6,4.06-1.14,0,3.52-4.18,2.31-4.87-2.11-1.2-3.68,1.59-4.17,4.17-0.77.64-1.83,1.38-1.89,1.41h0c-5.51,3.35.7-5.85,0.7-5.83,0-1.14-5.27,2.14-5.16,4.41L70,19.2a2.52,2.52,0,0,0-1.59-2c11.18-8.84-3.9-2.82-2-2.54a10.93,10.93,0,0,1-1.52,2.16s-3.25,3.31-3.53.6c0-2.2,2.3-2.6,1.3-4.94,2.44-.83-5.1-1-8.19,2.93a6.32,6.32,0,0,0-1,1.71L50.86,19c0.42-.71,2.85-5.28,2.08-6-1.52-1.52-5.94,7.56-7.68,5.4-2.17-2.69,6.44-5.28,6.45-6.93,0-1.94-7.56,3.16-8.23,5.2,0,0.06-3.39,3.56-3.53,1,0-3.68,6.84-6.92-1.57-5.61,1.83-3-5.28,2.15-1.87,3.33-0.25.4-1.1,1.66-1.1,1.66-1.45,1.88-2.63,2-3.56.41,0-2.2,2.3-2.6,1.3-4.94,2.44-.83-5.1-1-8.19,2.93a6.39,6.39,0,0,0-1,1.68,8,8,0,0,1-3,1.71c-2.34,0,1.39-5.88,1.52-6.09l1.77,0.13a21.16,21.16,0,0,0,1.92-2.89l-1.36-.16q0.77-1,1.45-2c0-2.23-4,3.09-3.33,2a13.67,13.67,0,0,0-2.16.13l0.08,0-0.08,0c-0.19,0-.09,0,0,0a3.89,3.89,0,0,0-2.36,2.91s2.18-.15,2.5-0.13a20.85,20.85,0,0,1-3.41,4.11v0.92c0.42-.39.85-0.77,1.29-1.14-2.32,5.85,1.38,5.21,5,1.67,0.3,1.92,4.44,1.5,7-1.37-2.48,6.4,2.18,3.83,5.18.65a22.78,22.78,0,0,0,2-2.81c0.87-.17,1.67-0.31,2.54-0.49-3.94,4.71-2.08,8.34,2.67,3.7-0.77,4.66,6,0,7.3-1.36-0.4,1-1.06,2.34-2,4.15-0.46.39-6.87,6.89-4.63,6.89,2.74,0,6.57-6.86,9.37-9.41,0.25,2,4.32,1.55,6.94-1.33-0.69,6.64,6.57-1.44,7-2.16A37.29,37.29,0,0,0,71.17,14a20.44,20.44,0,0,0-5,4c0,0.79,2.07,1.15,2.24,2.34-11.3,7.69.51,9,1.53-.16l3.37-2.85c0.79,4.21,3.14,4.17,6.1.51-0.08,1.41.23,2.53,1,2.53,1.28,0,4.43-5,5.74-5.67C86,15,81.91,21,84.9,21a10.33,10.33,0,0,0,4.17-3c-0.66,4.49,6.07-.12,7.34-1.46q-0.6,1.44-1.95,4.15C94,21,87.6,27.55,89.83,27.55c3,0,7.32-8.27,10.16-10V16.65ZM29.64,16.38c-0.39.44-.19,0.22,0,0a5.69,5.69,0,0,1-3.09,2.33c-3.1,0,5.44-5.56,5.89-5.92Q30.81,15.06,29.64,16.38Zm26.41,2.34c-3.1,0,5.44-5.56,5.89-5.92C60.85,14.3,59.86,17.54,56.05,18.71Zm11.19,5c-0.6.85-3.07,3.29-3.06,1.86,0-1.07,3.53-3.61,4.06-4A5.8,5.8,0,0,1,67.25,23.72Z" transform="translate(-0.26 -4.29)"/><path d="M29.84,56.59c1.85,3.22,9.57-7.37,10.27-8.22C38.86,50.64,36,55,38.59,57.24c5.53,4.45,11.92-15.1,10.44-15.1-1.89,0-1.28,2.89-1.57,3.49-11.59,22.31-4.63-3.73-2.89-3.73-1.49,0-12.67,12.55-12.66,12,0-2.56,14.32-18.31-.14-12.48L31.64,41c0.08,0-6.93,6.08-4,6.08,0.77,0,9.27-5.35,9.26-3,0,4-9.92,7.46-7,12.5h0Z" transform="translate(-0.26 -4.29)"/><polygon points="51.88 49.87 51.88 49.87 51.88 49.87 51.88 49.87"/><path d="M57.26,45.89h0Z" transform="translate(-0.26 -4.29)"/><path d="M69.23,47.94c-1.92,0-6,5.11-6.67,5.8v-1.6c2.24-2.44,9.06-8.9,9.09-12.35,0-2.72-7.83,6.75-10.4,12.54a11.35,11.35,0,0,1-3.89,2.52c-2.34,0,1.39-5.88,1.53-6.09l1.77,0.13A21.16,21.16,0,0,0,62.58,46l-1.36-.16q0.77-1,1.45-2c0-2.23-4,3.09-3.33,2a13.68,13.68,0,0,0-2.16.13l0.07,0-0.07,0c-0.19,0-2.35,1.88-2.36,2.91,0,0,2.22-.15,2.54-0.13A18.92,18.92,0,0,1,54,52.79s-2,1.44-1.86,1.36c-5.51,3.35.7-5.85,0.7-5.83,0-1.16-5.53,2.27-5.2,4.55,0.7,4.86,3.36,4.86,6.36.79,0,0,.78-0.77,1.16-1.09-2.43,6.15,1.79,5.12,5.58,1.12-0.53,1.69-.37,2.83,1,2.83,1.64,0,4.28-5.09,6.09-6.09-0.28.4-4.46,6.56-1.51,6.56,1.49,0,3.85-2.72,4.58-3.46V52.69Q68.67,54.4,68,54.4C65.56,54.4,72.71,47.94,69.23,47.94Z" transform="translate(-0.26 -4.29)"/><path d="M23.29,86.16c-1.44,1.07-1.06,2.37.35,2.91,0.36-.64-4,6.11-1.78,6.11,1,0,2.55-2.84,2-3.59l1.21-2.18c15.36,1.81,18.14-19.25-1.84-12.13,0.55-.89-2.89,4.1-1.83,4.1,2.83-1.11,5.64-2.26,8.73-2.38L26.09,85a7.48,7.48,0,0,0-2.8,1.12h0ZM29.5,85q0.62-.18.14-0.44l-1.74.2C28.83,83.62,31.23,80.56,31,79c11,0,2.81,8.09-4.25,7.72l0.77-1.28Z" transform="translate(-0.26 -4.29)"/><path d="M41.81,87.23h0Z" transform="translate(-0.26 -4.29)"/><polygon points="59.61 85.93 59.61 85.93 59.61 85.93 59.61 85.93"/><path d="M59.87,90.22h0c-5.51,3.35.7-5.85,0.7-5.83,0-1.14-5.3,2.16-5.16,4.44-0.72.62-3.31,2.65-3.3,1.15l2.95-4.52c0-5.18-6.74,4.06-7.6,4.06-1.14,0,3.52-4.18,2.31-4.87-2.16-1.22-3.7,1.44-4.15,4.06l-0.81.59a1.19,1.19,0,0,1-1.28.11c0-.08,2.25-4.27.28-4.68,1.72-1.93-4.58.43-5.61,1.63-2.8,3.27.06,9.67,4.42,4.55a3.3,3.3,0,0,0,2.86-1.18c-0.14,1.53.15,2.79,1,2.79,1.28,0,4.43-5,5.74-5.67-0.15.25-4,6.29-1,6.29C53,92.41,56,89.56,56,89.56c0,4.21,3,4,6.06.16l-0.11-1A22.13,22.13,0,0,1,59.87,90.22Zm-18.05-3a3.87,3.87,0,0,0-.14,2.91c-4.69,3.41-1.6-3.24,1.18-4.91A14.28,14.28,0,0,0,41.81,87.23Z" transform="translate(-0.26 -4.29)"/><path d="M66.77,87.78h0Z" transform="translate(-0.26 -4.29)"/><path d="M67,87.62l0.08-.05Z" transform="translate(-0.26 -4.29)"/><path d="M67.1,87.56l0.08-.05Z" transform="translate(-0.26 -4.29)"/><path d="M67.18,87.51h0Z" transform="translate(-0.26 -4.29)"/><polygon points="64.26 82.63 64.26 82.63 64.26 82.62 64.26 82.63"/><path d="M73.39,90.84c3.25-2.08,4.21-5,3-8.58-1.05-.53-6.26,6-6.78,6.54-2.47,2.09-4.28,3.46-5.77.43C65,88.73,67,87.64,67,87.65c5.56-3.53-.34-6.32-2.59-2.72-3.76,6-1.23,12.31,5.21,4.67a10,10,0,0,0,.12,1.1c1.25,4.94,6.87.45,8.46-1.09V88.73C76.81,89.85,75.28,91.16,73.39,90.84Zm-8.88-3.92c-0.07.11-.15,0.22,0,0s0.07-.11,0,0c0.44-.65,1.88-2.26,2.88-2.26,1.47,0-3.4,3.69-3.46,3.71A3.77,3.77,0,0,1,64.51,86.92Zm6.24,1.81q2.72-2.65,3.55-3.58c0.09,0.71.2,1.44,0.24,2.15,0,0,0,0,0,0s0,0,0,0a3.05,3.05,0,0,1-1.89,3A2.41,2.41,0,0,0,70.76,88.73Z" transform="translate(-0.26 -4.29)"/><path d="M69.7,90.71h0Z" transform="translate(-0.26 -4.29)"/><polygon points="74.3 83.01 74.3 83.01 74.3 83.01 74.3 83.01"/><polygon points="77.91 1.16 78.42 2.71 80.04 2.71 78.73 3.82 79.23 5.45 77.91 4.53 76.59 5.5 77.1 3.81 75.78 2.71 77.41 2.71 77.91 1.16"/><polygon points="52.91 37.16 53.41 38.71 55.04 38.71 53.73 39.82 54.23 41.45 52.91 40.53 51.59 41.5 52.1 39.81 50.78 38.71 52.41 38.71 52.91 37.16"/><polygon points="59.91 73.16 60.41 74.71 62.04 74.71 60.73 75.82 61.23 77.45 59.91 76.53 58.59 77.5 59.1 75.81 57.78 74.71 59.41 74.71 59.91 73.16"/></svg>